Patient4_TMGait_0pt7_01_left_09_GRF.mot
version=1
nRows=52
nColumns=19
inDegrees=no
endheader
time	F1x	F1y	F1z	M1x	M1y	M1z	F2x	F2y	F2z	M2x	M2y	M2z	EC1x	EC1y	EC1z	EC2x	EC2y	EC2z
10.35	26.8204	-3.0486	9.0666	-0.13408	-2.4066	-11.626	-27.3867	698.5205	-89.7444	275.4523	95.764	759.8914	-0.0592	0.0182	-0.0073	-0.0462	0.0165	0.9585
10.3611	17.9847	-0.97049	6.1244	-0.43729	-1.7318	-6.5641	-26.4108	712.3124	-80.2764	278.0676	89.056	767.1203	-0.0592	0.0182	-0.0073	-0.0462	0.0165	0.9585
10.3721	10.4981	0.7552	3.6672	-0.69679	-1.1722	-2.3134	-25.0398	726.5329	-72.2705	281.3479	83.0807	774.2828	-0.0592	0.0182	-0.0073	-0.0462	0.0165	0.9585
10.3832	4.723	2.0806	1.7904	-0.90664	-0.74536	0.95855	-23.409	740.714	-66.0439	285.2357	78.0417	781.2467	-0.0592	0.0182	-0.0073	-0.0462	0.0165	0.9585
10.3943	0.73193	3.016	0.51308	-1.0656	-0.45938	3.1979	-21.6795	754.4618	-61.65	289.5449	74.0585	787.8655	-0.0592	0.0182	-0.0073	-0.0462	0.0165	0.9585
10.4054	-1.7923	3.6489	-0.27569	-1.185	-0.29061	4.6289	-19.9541	767.3223	-58.7424	293.9891	70.9375	793.8373	-0.0592	0.0182	-0.0073	-0.0462	0.0165	0.9585
10.4164	-3.1517	4.031	-0.68154	-1.266	-0.21452	5.3836	-18.2797	778.6717	-57.0557	298.18	68.5782	798.6285	-0.0592	0.0182	-0.0073	-0.0462	0.0165	0.9585
10.4275	-3.7476	4.2143	-0.83043	-1.3061	-0.21295	5.6958	-16.6545	787.7389	-56.2273	301.6879	66.7623	801.4955	-0.0592	0.0182	-0.0073	-0.0462	0.0165	0.9585
10.4386	-3.859	4.1734	-0.82794	-1.2851	-0.255	5.6095	-14.9847	793.7623	-55.9832	304.1062	65.3152	801.6736	-0.0592	0.0182	-0.0073	-0.0462	0.0165	0.9585
10.4496	-3.7525	3.8807	-0.74462	-1.1791	-0.33626	5.1869	-13.1927	796.0745	-56.1198	305.1057	64.0952	798.4667	-0.0592	0.0182	-0.0073	-0.0462	0.0165	0.9585
10.4607	-3.5672	3.2436	-0.63998	-0.95341	-0.42489	4.357	-11.1287	794.3388	-56.4105	304.5167	62.8937	791.4882	-0.0592	0.0182	-0.0073	-0.0462	0.0165	0.9585
10.4718	-3.4092	2.1824	-0.54317	-0.57736	-0.51231	3.0459	-8.6915	788.6047	-56.7525	302.3434	61.611	780.7512	-0.0592	0.0182	-0.0073	-0.0462	0.0165	0.9585
10.4829	-3.2926	0.61503	-0.47385	-0.021385	-0.57659	1.1603	-5.8023	779.3164	-56.9721	298.765	60.0751	766.6273	-0.0592	0.0182	-0.0073	-0.0462	0.0165	0.9585
10.4939	-3.1592	-1.4807	-0.44674	0.72267	-0.58111	-1.3499	-2.4726	767.2255	-57.0656	294.0778	58.2934	749.8331	-0.0592	0.0182	-0.0073	-0.0462	0.0165	0.9585
10.505	-2.9211	-4.0282	-0.45784	1.6283	-0.49077	-4.3836	1.2266	753.1951	-57.0142	288.6295	56.2628	731.1927	-0.0592	0.0182	-0.0073	-0.0462	0.0165	0.9585
10.5161	-2.3703	-6.7822	-0.52145	2.603	-0.21506	-7.6728	5.1737	738.1946	-56.9162	282.7906	54.1035	711.6593	-0.0592	0.0182	-0.0073	-0.0462	0.0165	0.9585
10.5271	-1.337	-9.2104	-0.63163	3.4552	0.31173	-10.5745	9.2459	723.1434	-56.8949	276.9149	51.9581	692.135	-0.0592	0.0182	-0.0073	-0.0462	0.0165	0.9585
10.5382	0.47245	-10.4308	-0.78831	3.8597	1.1857	-12.0857	13.306	708.9877	-57.0701	271.3535	49.9799	673.5762	-0.0592	0.0182	-0.0073	-0.0462	0.0165	0.9585
10.5493	3.2351	-9.0678	-0.97689	3.3186	2.4493	-10.5709	17.2453	696.533	-57.5865	266.4047	48.3429	656.7882	-0.0592	0.0182	-0.0073	-0.0462	0.0165	0.9585
10.5604	7.1481	-3.3034	-1.15	1.1667	4.1066	-3.9348	20.9622	686.3628	-58.4466	262.2815	47.098	642.3821	-0.0592	0.0182	-0.0073	-0.0462	0.0165	0.9585
10.5714	12.12	9.1685	-1.2548	-3.4233	6.0568	10.577	24.4047	678.6309	-59.6432	259.0322	46.276	630.5554	-0.0592	0.0182	-0.0073	-0.0462	0.0165	0.9585
10.5825	17.8344	30.7878	-1.1702	-11.3309	8.0425	35.812	27.5338	672.9284	-60.9974	256.4951	45.7412	620.9927	-0.0592	0.0182	-0.0073	-0.0462	0.0165	0.9585
10.5936	23.3636	63.7785	-0.77273	-23.3415	9.5782	74.4633	30.3577	668.2256	-62.311	254.2738	45.3256	612.8014	-0.0592	0.0182	-0.0073	-0.0462	0.0165	0.9585
10.6046	27.1934	109.1851	0.1383	-39.8213	9.8649	127.786	32.8547	662.9775	-63.3072	251.7847	44.7952	604.6235	-0.0592	0.0182	-0.0073	-0.0462	0.0165	0.9585
10.6157	26.9835	166.0643	1.7963	-60.4051	7.7833	194.8167	35.0444	655.3112	-63.6886	248.3382	43.8823	594.7678	-0.0592	0.0182	-0.0073	-0.0462	0.0165	0.9585
10.6268	21.0525	231.1178	4.5472	-83.8746	2.3311	271.7692	36.9112	643.3739	-63.1878	243.2691	42.3621	581.5638	-0.0592	0.0182	-0.0073	-0.0462	0.0165	0.9585
10.6379	9.8887	299.1819	8.757	-108.3121	-6.7342	352.5922	38.4459	625.6111	-61.5325	236.0433	40.0136	563.5678	-0.0592	0.0182	-0.0073	-0.0462	0.0165	0.9585
10.6489	-3.8428	363.2963	14.8055	-131.2086	-18.8378	428.7345	39.5942	600.9937	-58.6124	226.3217	36.7769	539.8385	-0.0592	0.0182	-0.0073	-0.0462	0.0165	0.9585
10.66	-17.558	418.1579	22.2347	-150.7009	-32.4371	493.5383	40.3204	568.9935	-54.4773	213.9463	32.722	509.84	-0.0592	0.0182	-0.0073	-0.0462	0.0165	0.9585
10.6711	-29.737	462.6718	29.7461	-166.469	-45.4855	545.342	40.4695	529.8159	-49.3268	198.9949	28.0753	473.7416	-0.0592	0.0182	-0.0073	-0.0462	0.0165	0.9585
10.6821	-39.5	498.6503	36.5528	-179.2275	-56.757	586.2614	39.9695	484.2027	-43.5313	181.7362	23.1805	432.1549	-0.0592	0.0182	-0.0073	-0.0462	0.0165	0.9585
10.6932	-46.6254	528.6916	42.0044	-189.972	-65.4509	619.3813	38.6492	433.5186	-37.4949	162.65	18.4216	386.3075	-0.0592	0.0182	-0.0073	-0.0462	0.0165	0.9585
10.7043	-51.158	554.9983	45.8786	-199.5013	-71.3554	647.3888	36.4022	379.4778	-31.5648	142.3575	14.1229	337.6793	-0.0592	0.0182	-0.0073	-0.0462	0.0165	0.9585
10.7154	-53.3065	578.6188	48.3564	-208.1839	-74.7637	671.6144	33.0462	324.1412	-26.0186	121.6081	10.5676	288.1305	-0.0592	0.0182	-0.0073	-0.0462	0.0165	0.9585
10.7264	-53.3898	600.1666	49.7679	-216.1886	-76.195	692.7765	28.6342	269.7408	-21.0749	101.2184	7.9258	239.6045	-0.0592	0.0182	-0.0073	-0.0462	0.0165	0.9585
10.7375	-51.7389	619.9484	50.6822	-223.5624	-76.4288	711.4061	23.2805	218.4436	-16.8879	81.9836	6.2735	194.0194	-0.0592	0.0182	-0.0073	-0.0462	0.0165	0.9585
10.7486	-48.8596	638.3871	51.4716	-230.3916	-76.0918	728.047	17.461	172.0972	-13.5191	64.5834	5.4996	152.938	-0.0592	0.0182	-0.0073	-0.0462	0.0165	0.9585
10.7596	-45.2151	655.7225	52.5053	-236.7112	-75.7688	743.1621	11.6758	131.8726	-10.9143	49.4569	5.3644	117.3495	-0.0592	0.0182	-0.0073	-0.0462	0.0165	0.9585
10.7707	-41.2026	671.9469	53.9552	-242.4939	-75.7986	756.8439	6.5256	98.17	-8.9463	36.7682	5.5479	87.53	-0.0592	0.0182	-0.0073	-0.0462	0.0165	0.9585
10.7818	-37.2589	686.8719	55.8376	-247.6677	-76.3391	768.9436	2.3293	70.7807	-7.4177	26.4554	5.7568	63.2852	-0.0592	0.0182	-0.0073	-0.0462	0.0165	0.9585
10.7929	-33.5358	700.33	58.054	-252.1835	-77.3284	779.3561	-0.73604	49.095	-6.1479	18.3062	5.7736	44.0588	-0.0592	0.0182	-0.0073	-0.0462	0.0165	0.9585
10.8039	-30.1676	712.368	60.2679	-256.075	-78.4359	788.1363	-2.6964	32.3921	-4.9965	12.0497	5.4811	29.2437	-0.0592	0.0182	-0.0073	-0.0462	0.0165	0.9585
10.815	-27.1172	722.9338	62.2445	-259.3455	-79.3708	795.264	-3.6474	19.8886	-3.8854	7.3924	4.848	18.1483	-0.0592	0.0182	-0.0073	-0.0462	0.0165	0.9585
10.8261	-24.3645	731.8968	63.7384	-261.9593	-79.844	800.6185	-3.7665	10.9584	-2.8168	4.0844	3.943	10.2365	-0.0592	0.0182	-0.0073	-0.0462	0.0165	0.9585
10.8371	-21.9286	738.8952	64.7375	-263.8001	-79.8228	803.8183	-3.3097	5.0179	-1.8498	1.8976	2.9154	4.9913	-0.0592	0.0182	-0.0073	-0.0462	0.0165	0.9585
10.8482	-19.7338	743.7011	65.3412	-264.7811	-79.3778	804.6614	-2.5945	1.5229	-1.0831	0.61664	1.9716	1.9249	-0.0592	0.0182	-0.0073	-0.0462	0.0165	0.9585
10.8593	-17.7188	746.2535	65.6405	-264.8845	-78.5919	803.0678	-1.8461	-0.15742	-0.53722	0.0031387	1.2131	0.48288	-0.0592	0.0182	-0.0073	-0.0462	0.0165	0.9585
10.8704	-15.8256	746.784	65.7919	-264.2035	-77.6164	799.2995	-1.174	-0.62901	-0.17233	-0.16692	0.64412	0.11724	-0.0592	0.0182	-0.0073	-0.0462	0.0165	0.9585
10.8814	-13.9734	745.8204	65.7754	-262.9563	-76.4314	793.9324	-0.65017	-0.36927	0.035364	-0.071684	0.26711	0.40166	-0.0592	0.0182	-0.0073	-0.0462	0.0165	0.9585
10.8925	-12.1733	744.0523	65.6465	-261.4268	-75.1103	787.6927	-0.26202	0.23109	0.14216	0.15046	0.030488	0.97172	-0.0592	0.0182	-0.0073	-0.0462	0.0165	0.9585
10.9036	-10.3913	742.1784	65.3694	-259.9056	-73.6239	781.3285	-0.024232	0.95757	0.17459	0.41658	-0.087556	1.6658	-0.0592	0.0182	-0.0073	-0.0462	0.0165	0.9585
10.9146	-8.6151	740.6811	64.9544	-258.6053	-71.988	775.3278	0.12	1.6409	0.16616	0.6689	-0.13255	2.3106	-0.0592	0.0182	-0.0073	-0.0462	0.0165	0.9585
